<svg viewBox="0 0 140 90" xmlns="http://www.w3.org/2000/svg">
  <defs>
    <radialGradient id="tbIris" cx="50%" cy="50%" r="50%">
      <stop offset="0%" stop-color="#5a9fff"/>
      <stop offset="100%" stop-color="#0a1a5c"/>
    </radialGradient>
    <radialGradient id="tbAmber" cx="50%" cy="50%" r="50%">
      <stop offset="0%" stop-color="#e07a20"/>
      <stop offset="100%" stop-color="#3a1500"/>
    </radialGradient>
    <radialGradient id="tbPupil" cx="40%" cy="40%" r="50%">
      <stop offset="0%" stop-color="#1a2a60"/>
      <stop offset="100%" stop-color="#000510"/>
    </radialGradient>
  </defs>
  <rect width="140" height="90" fill="#070d1a" rx="18"/>
  <path d="M8 38 Q8 16 70 13 Q132 16 132 38 Q132 52 116 52 Q96 46 70 46 Q44 46 24 52 Q8 52 8 38Z" fill="#0d1530" stroke="rgba(80,130,255,0.25)" stroke-width="1"/>
  <ellipse cx="44" cy="34" rx="20" ry="14" fill="#080b16"/>
  <ellipse cx="96" cy="34" rx="20" ry="14" fill="#080b16"/>
  <ellipse cx="44" cy="34" rx="15" ry="11" fill="url(#tbIris)"/>
  <ellipse cx="44" cy="34" rx="7" ry="7" fill="url(#tbPupil)"/>
  <ellipse cx="41" cy="31" rx="2.5" ry="2.5" fill="rgba(255,255,255,0.45)"/>
  <ellipse cx="96" cy="34" rx="15" ry="11" fill="url(#tbAmber)"/>
  <ellipse cx="96" cy="34" rx="7" ry="7" fill="url(#tbPupil)"/>
  <ellipse cx="93" cy="31" rx="2.5" ry="2.5" fill="rgba(255,255,255,0.40)"/>
</svg>